<?xml version="1.0" encoding="UTF-8"?>
<svg id="Capa_2" xmlns="http://www.w3.org/2000/svg" viewBox="0 0 1028.03 429.86">
  <defs>
    <style>
      .cls-1 {
        fill: #33179c;
      }

      .cls-2 {
        fill: #308fff;
      }

      .cls-3 {
        fill: #ff4d63;
      }

      .cls-4 {
        fill: #54c98f;
      }
    </style>
  </defs>
  <g id="Capa_1-2" data-name="Capa_1">
    <g>
      <g>
        <rect class="cls-3" y="267.09" width="15.96" height="15.96"/>
        <rect class="cls-3" x="389.3" y="246.7" width="15.96" height="15.96"/>
        <rect class="cls-3" x="405.26" y="198.82" width="15.96" height="15.96"/>
        <rect class="cls-4" x="415.13" y="108.31" width="15.9" height="15.96"/>
        <rect class="cls-4" x="254.2" y="196.51" width="15.96" height="15.96"/>
        <rect class="cls-4" x="325.19" y="326.52" width="15.96" height="15.96"/>
        <rect class="cls-2" x="338.82" y="117.35" width="15.96" height="15.96"/>
        <polygon class="cls-1" points="153.62 236.8 153.62 234.16 153.62 220.76 137.65 220.76 137.65 234.16 137.65 236.8 137.65 250.2 153.62 250.2 153.62 236.8"/>
        <rect class="cls-4" x="206.33" y="148.63" width="15.96" height="15.96"/>
        <g>
          <path class="cls-1" d="M42.37,256.68h31.09v-24.28c0-2.76,1.07-5.35,3.02-7.3l12.49-12.48c5.05-5.05,11.76-7.83,18.9-7.83h13.83v-16.04h-13.83c-11.43,0-22.16,4.45-30.24,12.52l-12.48,12.48c-4.98,4.98-7.72,11.6-7.72,18.64v8.25h-15.05c-14.58,0-26.44,11.86-26.44,26.44h16.04c0-5.73,4.67-10.4,10.4-10.4"/>
          <path class="cls-1" d="M256.24,407.54v-22.17c0-16.51-13.44-29.94-29.95-29.94h-51.01v17c0,1.54-1.25,2.79-2.8,2.79h-10.4v16.04h10.4c10.39,0,18.84-8.45,18.84-18.83v-.96h34.97c7.67,0,13.91,6.24,13.91,13.9v22.17c0,12.31,10.02,22.32,22.33,22.32h4v-16.04h-4c-3.47,0-6.29-2.82-6.29-6.29"/>
        </g>
        <rect class="cls-2" x="222.32" y="132.67" width="15.92" height="15.96"/>
        <rect class="cls-3" x="431.03" y="92.35" width="15.9" height="15.96"/>
        <rect class="cls-4" x="130.09" y="375.24" width="15.96" height="15.96"/>
        <rect class="cls-2" x="137.65" y="188.84" width="15.96" height="15.96"/>
        <rect class="cls-2" x="15.96" y="283.05" width="15.96" height="15.96"/>
        <rect class="cls-2" x="373.31" y="230.74" width="15.96" height="15.96"/>
        <rect class="cls-2" x="389.3" y="182.86" width="15.96" height="15.96"/>
        <rect class="cls-2" x="238.24" y="180.57" width="15.96" height="15.94"/>
        <rect class="cls-2" x="266.54" y="397.86" width="15.96" height="15.96"/>
        <rect class="cls-3" x="146.08" y="359.29" width="15.96" height="15.96"/>
        <rect class="cls-3" x="153.62" y="250.2" width="15.96" height="15.96"/>
        <rect class="cls-4" x="389.3" y="214.79" width="15.96" height="15.96"/>
        <rect class="cls-3" x="222.28" y="164.59" width="15.96" height="15.96"/>
        <rect class="cls-3" x="354.79" y="133.31" width="15.96" height="15.96"/>
        <rect class="cls-4" x="121.69" y="204.8" width="15.96" height="15.96"/>
        <rect class="cls-2" x="189.73" y="47.88" width="15.96" height="15.96"/>
        <rect class="cls-3" x="237.59" y="15.96" width="15.96" height="15.96"/>
        <polygon class="cls-1" points="189.68 0 189.68 15.96 205.65 15.96 205.66 15.94 205.66 15.96 205.66 31.92 221.62 31.92 221.62 15.96 221.62 0 189.68 0"/>
        <path class="cls-1" d="M276.02,96.05h0c.11,0,.21,0,.32,0-.1,0-.21,0-.32,0M285.44,70.31c0,5.35-4.35,9.71-9.71,9.71-2.22.03-5.03.64-28.42,15.13l-4.27,2.35v14.35c0,2.64-2.15,4.79-4.79,4.79v16.04c11.48,0,20.83-9.34,20.83-20.82v-5.4c7.54-4.59,15.51-9.22,18.28-10.45,13.44-.84,24.12-12.05,24.12-25.69v-6.44h-16.04v6.44Z"/>
        <polygon class="cls-1" points="237.59 47.88 237.59 31.92 221.63 31.92 221.63 47.88 221.63 63.84 237.59 63.84 237.59 47.88"/>
        <path class="cls-1" d="M177.82,94.78c3.36,12.59,14.87,21.89,28.5,21.89v-16.04c-7.42,0-13.45-6.03-13.45-13.45v-8.02h-10.52c-4.76,0-8.64-3.88-8.64-8.64v-22.65h-16.04v22.65c0,12.06,8.7,22.12,20.15,24.26"/>
        <rect class="cls-4" x="173.73" y="31.92" width="15.96" height="15.96"/>
        <rect class="cls-3" x="206.33" y="116.67" width="15.96" height="15.96"/>
        <polygon class="cls-1" points="269.52 63.84 285.44 63.84 285.44 47.88 269.52 47.88 269.52 31.92 253.56 31.92 253.56 47.88 253.56 63.84 269.47 63.84 269.52 63.84"/>
        <g>
          <path class="cls-1" d="M110.83,381.18l-20.39-18.34v-8.18c0-5.19-1.92-10.17-5.39-14.03l-.28-.31-34.34-30.96c-2.03-2.22-2.94-4.76-2.94-8.17v-2.17h-16.04v2.17c0,7.64,2.55,14.18,7.57,19.44l.21.22,34.13,30.77c.68.86,1.06,1.93,1.06,3.04v15.33l25.78,23.19,1.15.98c8.56,7.31,15.32,13.08,28.74,13.08v-16.04c-7.51,0-10.45-2.52-18.32-9.24l-.92-.78Z"/>
          <path class="cls-1" d="M446.93,108.31v23.38c0,5.49-.95,13.22-5.46,19.54-2.23,3.12-8.6,10.77-12.66,15.6h-23.53v16.04h30.95l2.4-2.82c.49-.58,12.18-14.3,15.89-19.49,5.53-7.74,8.45-17.62,8.45-28.86v-23.38h-16.04Z"/>
          <path class="cls-1" d="M288.77,180.48h-18.6v16.04h19.3c8.21,0,14.94-6.49,15.31-14.61h10.67c12.91,0,23.42-10.5,23.42-23.41v-9.21h-.04v-15.96h-15.96v15.96h-.04v9.21c0,4.07-3.31,7.38-7.38,7.38h-11.36c-8.21,0-14.94,6.49-15.31,14.61"/>
          <path class="cls-1" d="M169.59,197.49v52.69h16.04v-52.69c0-9.3,7.57-16.87,16.87-16.87h3.8v-16.04h-3.8c-18.14,0-32.91,14.76-32.91,32.9"/>
          <path class="cls-1" d="M346.32,270.7l-22.5,13.68h-14.59c-11.62,0-21.07,9.45-21.07,21.07s9.45,21.07,21.07,21.07h15.96v-16.04h-15.96c-2.78,0-5.03-2.26-5.03-5.04s2.26-5.03,5.03-5.03h19.14l26.37-16.07c5.99-3.69,12.87-5.64,19.91-5.64h14.66v-16.04h-14.66c-10.01,0-19.81,2.77-28.33,8.03"/>
          <path class="cls-1" d="M395.97,125.96l11.44-14.88c1.34-1.74,2.42-2.81,7.7-2.81v-16.04c-9.42,0-15.53,2.71-20.42,9.07l-11.43,14.88c-.52.67-1.34,1.08-2.19,1.08h-10.31v16.04h10.31c5.8,0,11.37-2.75,14.91-7.34"/>
          <path class="cls-1" d="M357.13,342.48h-15.96v15.96h-.04v14.62l-5.06,11.98c-.92,2.17-3.04,3.58-5.4,3.58h-10.64l-7.85,16.5c-2.51,5.27-7.9,8.67-13.73,8.67v.04h-15.94v15.96h15.94v.04c11.99,0,23.07-7,28.22-17.82l3.5-7.36h.51c8.82,0,16.74-5.25,20.17-13.38l6.32-14.97v-17.87h-.04v-15.96Z"/>
        </g>
      </g>
      <g>
        <g>
          <polygon class="cls-1" points="542.14 108.41 522.2 108.41 522.2 97.94 573.66 97.94 573.66 108.41 553.72 108.41 553.72 163 542.14 163 542.14 108.41"/>
          <g>
            <path class="cls-1" d="M601.79,136.53c-.06-3.25-1.07-5.8-3.03-7.67-1.96-1.87-4.69-2.8-8.18-2.8-3.31,0-5.93.95-7.86,2.85-1.93,1.9-3.11,4.44-3.54,7.63h22.61ZM579.18,144.8c.37,3.31,1.65,5.88,3.86,7.72,2.21,1.84,4.87,2.76,8,2.76,2.76,0,5.07-.57,6.94-1.7,1.87-1.13,3.51-2.56,4.92-4.27l7.9,5.97c-2.57,3.19-5.45,5.45-8.64,6.8-3.19,1.35-6.53,2.02-10.02,2.02-3.31,0-6.43-.55-9.37-1.65-2.94-1.1-5.48-2.66-7.63-4.69-2.15-2.02-3.85-4.46-5.1-7.31-1.26-2.85-1.88-6.02-1.88-9.51s.63-6.66,1.88-9.51c1.26-2.85,2.96-5.28,5.1-7.31,2.14-2.02,4.69-3.58,7.63-4.69,2.94-1.1,6.07-1.65,9.37-1.65,3.06,0,5.87.54,8.41,1.61,2.54,1.07,4.72,2.62,6.53,4.64,1.8,2.02,3.22,4.52,4.23,7.49,1.01,2.97,1.52,6.39,1.52,10.25v3.03h-33.64Z"/>
            <path class="cls-1" d="M653.25,132.12c-1.29-1.35-2.64-2.42-4.04-3.22-1.41-.79-2.85-1.19-4.32-1.19-2.02,0-3.83.37-5.42,1.1-1.59.74-2.96,1.72-4.09,2.94-1.14,1.22-1.99,2.63-2.57,4.23-.58,1.59-.87,3.25-.87,4.96s.29,3.37.87,4.96c.58,1.59,1.44,3,2.57,4.23,1.13,1.23,2.5,2.2,4.09,2.94,1.59.73,3.4,1.1,5.42,1.1,1.72,0,3.31-.35,4.78-1.05,1.47-.7,2.73-1.73,3.77-3.08l7.35,7.9c-1.1,1.1-2.38,2.05-3.81,2.85-1.44.8-2.9,1.44-4.36,1.93-1.47.49-2.88.84-4.23,1.06-1.35.21-2.51.32-3.49.32-3.31,0-6.43-.55-9.37-1.65-2.94-1.1-5.48-2.67-7.63-4.69-2.14-2.02-3.85-4.46-5.1-7.31-1.26-2.85-1.88-6.02-1.88-9.51s.63-6.66,1.88-9.51c1.26-2.85,2.96-5.28,5.1-7.31,2.14-2.02,4.69-3.58,7.63-4.69,2.94-1.1,6.07-1.65,9.37-1.65,2.82,0,5.65.54,8.5,1.61,2.85,1.07,5.34,2.77,7.49,5.1l-7.63,7.63Z"/>
            <path class="cls-1" d="M667.4,118.89h10.48v7.08h.18c1.04-2.2,2.63-4.12,4.78-5.74,2.14-1.62,5.05-2.43,8.73-2.43,2.94,0,5.44.49,7.49,1.47,2.05.98,3.72,2.27,5.01,3.86,1.29,1.59,2.21,3.43,2.76,5.51.55,2.08.83,4.26.83,6.52v27.84h-11.03v-22.33c0-1.22-.06-2.59-.18-4.09-.12-1.5-.45-2.91-.96-4.23-.52-1.32-1.33-2.42-2.44-3.31-1.1-.89-2.6-1.33-4.5-1.33s-3.39.31-4.64.92c-1.26.61-2.3,1.44-3.13,2.48-.83,1.04-1.42,2.24-1.79,3.58-.37,1.35-.55,2.76-.55,4.23v24.08h-11.03v-44.11Z"/>
            <path class="cls-1" d="M728.98,140.94c0,1.72.29,3.37.87,4.96.58,1.6,1.44,3,2.57,4.23,1.13,1.23,2.5,2.21,4.09,2.94,1.59.73,3.4,1.1,5.42,1.1s3.83-.37,5.42-1.1,2.96-1.71,4.09-2.94c1.13-1.22,1.99-2.63,2.57-4.23.58-1.59.87-3.25.87-4.96s-.29-3.37-.87-4.96c-.58-1.59-1.44-3-2.57-4.23-1.13-1.23-2.5-2.21-4.09-2.94-1.59-.74-3.4-1.1-5.42-1.1s-3.83.37-5.42,1.1c-1.59.73-2.96,1.72-4.09,2.94-1.13,1.22-1.99,2.63-2.57,4.23-.58,1.59-.87,3.25-.87,4.96M717.95,140.94c0-3.49.63-6.66,1.88-9.51,1.26-2.85,2.96-5.28,5.1-7.31,2.14-2.02,4.69-3.58,7.63-4.69,2.94-1.1,6.07-1.65,9.38-1.65s6.43.55,9.37,1.65c2.94,1.1,5.48,2.66,7.63,4.69,2.14,2.02,3.84,4.46,5.1,7.31,1.25,2.85,1.88,6.02,1.88,9.51s-.63,6.66-1.88,9.51c-1.26,2.85-2.96,5.28-5.1,7.31-2.15,2.02-4.69,3.58-7.63,4.69-2.94,1.1-6.07,1.65-9.37,1.65s-6.43-.55-9.38-1.65c-2.94-1.1-5.48-2.66-7.63-4.69-2.15-2.02-3.85-4.46-5.1-7.31-1.26-2.85-1.88-6.02-1.88-9.51"/>
          </g>
          <rect class="cls-1" x="776.4" y="93.53" width="11.03" height="69.47"/>
          <path class="cls-1" d="M826.67,97.94h12.5l-12.96,13.23h-8.64l9.1-13.23ZM808.93,140.94c0,1.72.29,3.37.87,4.96.58,1.6,1.44,3,2.57,4.23,1.13,1.23,2.5,2.21,4.09,2.94,1.59.73,3.4,1.1,5.42,1.1s3.83-.37,5.42-1.1c1.59-.73,2.96-1.71,4.09-2.94,1.13-1.22,1.99-2.63,2.57-4.23.58-1.59.88-3.25.88-4.96s-.29-3.37-.88-4.96c-.58-1.59-1.44-3-2.57-4.23-1.14-1.23-2.5-2.21-4.09-2.94-1.59-.74-3.4-1.1-5.42-1.1s-3.83.37-5.42,1.1c-1.59.73-2.96,1.72-4.09,2.94-1.13,1.22-1.99,2.63-2.57,4.23-.58,1.59-.87,3.25-.87,4.96M797.91,140.94c0-3.49.63-6.66,1.88-9.51,1.26-2.85,2.96-5.28,5.1-7.31,2.14-2.02,4.69-3.58,7.63-4.69,2.94-1.1,6.07-1.65,9.38-1.65s6.43.55,9.37,1.65c2.94,1.1,5.48,2.66,7.63,4.69,2.14,2.02,3.84,4.46,5.1,7.31,1.25,2.85,1.88,6.02,1.88,9.51s-.63,6.66-1.88,9.51c-1.26,2.85-2.96,5.28-5.1,7.31-2.14,2.02-4.69,3.58-7.63,4.69-2.94,1.1-6.07,1.65-9.37,1.65s-6.44-.55-9.38-1.65c-2.94-1.1-5.48-2.66-7.63-4.69-2.15-2.02-3.85-4.46-5.1-7.31-1.26-2.85-1.88-6.02-1.88-9.51"/>
          <path class="cls-1" d="M878.05,127.71c-1.96,0-3.74.32-5.33.96-1.59.64-2.96,1.53-4.09,2.66-1.13,1.14-2.02,2.51-2.66,4.14-.64,1.62-.97,3.42-.97,5.38,0,1.78.32,3.43.97,4.96.64,1.53,1.55,2.88,2.71,4.04,1.16,1.17,2.54,2.08,4.14,2.76,1.59.67,3.31,1.01,5.15,1.01,2.02,0,3.84-.34,5.47-1.01,1.62-.67,3-1.58,4.14-2.71,1.13-1.13,2.01-2.5,2.62-4.09.61-1.59.92-3.31.92-5.15,0-3.86-1.16-6.98-3.49-9.37-2.33-2.39-5.51-3.58-9.56-3.58M901.57,118.89v40.16c0,3.98-.49,7.58-1.47,10.8-.98,3.22-2.5,5.94-4.55,8.18-2.05,2.23-4.64,3.97-7.77,5.19-3.12,1.22-6.83,1.84-11.12,1.84s-8-.52-11.67-1.56c-3.68-1.04-7.08-2.94-10.2-5.7l6.62-9c2.21,2.02,4.5,3.58,6.89,4.69,2.39,1.1,5.15,1.65,8.27,1.65,2.63,0,4.85-.37,6.66-1.1,1.81-.73,3.25-1.74,4.32-3.03,1.07-1.29,1.84-2.83,2.3-4.64.46-1.81.69-3.81.69-6.02v-3.22h-.18c-1.59,2.14-3.71,3.75-6.34,4.82-2.64,1.07-5.33,1.61-8.09,1.61-3.31,0-6.31-.6-9.01-1.79-2.7-1.19-5.01-2.8-6.94-4.82-1.93-2.02-3.41-4.41-4.46-7.17-1.04-2.76-1.56-5.7-1.56-8.82s.49-6.28,1.47-9.1c.98-2.82,2.42-5.27,4.32-7.35,1.9-2.08,4.18-3.72,6.85-4.91,2.66-1.2,5.71-1.79,9.14-1.79,3.13,0,6.04.61,8.73,1.84,2.69,1.23,4.84,3.19,6.43,5.88h.18v-6.62h10.48Z"/>
          <path class="cls-1" d="M914.25,118.89h11.03v44.11h-11.03v-44.11ZM912.69,103.91c0-1.78.66-3.32,1.98-4.64,1.32-1.32,2.99-1.98,5.01-1.98s3.72.63,5.1,1.89c1.38,1.26,2.07,2.83,2.07,4.73s-.69,3.48-2.07,4.73c-1.38,1.26-3.08,1.88-5.1,1.88s-3.69-.66-5.01-1.98c-1.32-1.32-1.98-2.86-1.98-4.64"/>
          <path class="cls-1" d="M968.11,132.12c-1.29-1.35-2.64-2.42-4.04-3.22-1.41-.79-2.85-1.19-4.32-1.19-2.02,0-3.83.37-5.42,1.1-1.59.74-2.96,1.72-4.09,2.94-1.14,1.22-1.99,2.63-2.57,4.23-.58,1.59-.87,3.25-.87,4.96s.29,3.37.87,4.96c.58,1.59,1.44,3,2.57,4.23,1.13,1.23,2.5,2.2,4.09,2.94,1.59.73,3.4,1.1,5.42,1.1,1.71,0,3.31-.35,4.78-1.05,1.47-.7,2.73-1.73,3.77-3.08l7.35,7.9c-1.1,1.1-2.38,2.05-3.81,2.85-1.44.8-2.9,1.44-4.36,1.93-1.47.49-2.88.84-4.23,1.06-1.35.21-2.51.32-3.49.32-3.31,0-6.43-.55-9.37-1.65-2.94-1.1-5.48-2.67-7.63-4.69-2.14-2.02-3.84-4.46-5.1-7.31-1.26-2.85-1.88-6.02-1.88-9.51s.63-6.66,1.88-9.51c1.26-2.85,2.96-5.28,5.1-7.31,2.14-2.02,4.69-3.58,7.63-4.69,2.94-1.1,6.07-1.65,9.37-1.65,2.82,0,5.65.54,8.5,1.61,2.85,1.07,5.34,2.77,7.49,5.1l-7.63,7.63Z"/>
          <path class="cls-1" d="M991.09,140.94c0,1.72.29,3.37.87,4.96.58,1.6,1.44,3,2.57,4.23,1.13,1.23,2.5,2.21,4.09,2.94,1.59.73,3.4,1.1,5.42,1.1s3.83-.37,5.42-1.1,2.96-1.71,4.09-2.94c1.13-1.22,1.99-2.63,2.57-4.23.58-1.59.87-3.25.87-4.96s-.29-3.37-.87-4.96c-.58-1.59-1.44-3-2.57-4.23-1.13-1.23-2.5-2.21-4.09-2.94-1.59-.74-3.4-1.1-5.42-1.1s-3.83.37-5.42,1.1c-1.59.73-2.96,1.72-4.09,2.94-1.13,1.22-1.99,2.63-2.57,4.23-.58,1.59-.87,3.25-.87,4.96M980.06,140.94c0-3.49.63-6.66,1.88-9.51,1.26-2.85,2.96-5.28,5.1-7.31,2.14-2.02,4.69-3.58,7.63-4.69,2.94-1.1,6.07-1.65,9.38-1.65s6.43.55,9.37,1.65c2.94,1.1,5.48,2.66,7.63,4.69,2.14,2.02,3.84,4.46,5.1,7.31,1.25,2.85,1.88,6.02,1.88,9.51s-.63,6.66-1.88,9.51c-1.26,2.85-2.96,5.28-5.1,7.31-2.15,2.02-4.69,3.58-7.63,4.69-2.94,1.1-6.07,1.65-9.37,1.65s-6.43-.55-9.38-1.65c-2.94-1.1-5.48-2.66-7.63-4.69-2.15-2.02-3.85-4.46-5.1-7.31-1.26-2.85-1.88-6.02-1.88-9.51"/>
        </g>
        <g>
          <path class="cls-1" d="M560.7,209.4c-1.23-1.78-2.86-3.08-4.92-3.9-2.05-.83-4.21-1.24-6.48-1.24-1.35,0-2.65.15-3.9.46-1.26.31-2.39.8-3.4,1.47-1.01.67-1.82,1.55-2.44,2.62-.61,1.07-.92,2.34-.92,3.81,0,2.21.77,3.89,2.3,5.05,1.53,1.17,3.43,2.18,5.7,3.03,2.27.86,4.75,1.69,7.44,2.48,2.7.8,5.18,1.9,7.44,3.31,2.27,1.41,4.17,3.28,5.7,5.61,1.53,2.33,2.3,5.42,2.3,9.28,0,3.49-.64,6.54-1.93,9.14-1.29,2.6-3.02,4.76-5.19,6.48-2.17,1.72-4.7,3-7.58,3.86-2.88.86-5.91,1.29-9.1,1.29-4.04,0-7.94-.68-11.67-2.02-3.74-1.35-6.96-3.61-9.65-6.8l8.73-8.45c1.41,2.15,3.26,3.81,5.56,5.01,2.3,1.19,4.73,1.79,7.31,1.79,1.35,0,2.7-.18,4.04-.55,1.35-.37,2.57-.92,3.68-1.65,1.1-.74,1.99-1.67,2.66-2.8.67-1.13,1.01-2.44,1.01-3.9,0-2.39-.77-4.23-2.3-5.51-1.53-1.29-3.43-2.37-5.7-3.26-2.27-.89-4.75-1.73-7.44-2.53-2.7-.8-5.18-1.89-7.45-3.26-2.27-1.38-4.17-3.21-5.7-5.51-1.53-2.3-2.3-5.38-2.3-9.24,0-3.37.69-6.28,2.07-8.73s3.19-4.49,5.42-6.11c2.23-1.62,4.79-2.83,7.67-3.63,2.88-.8,5.82-1.2,8.82-1.2,3.43,0,6.75.52,9.97,1.56,3.22,1.04,6.11,2.76,8.69,5.14l-8.46,8.91Z"/>
          <path class="cls-1" d="M620.81,260.49h-10.48v-7.08h-.18c-1.04,2.21-2.63,4.12-4.78,5.74-2.15,1.62-5.06,2.44-8.73,2.44-2.94,0-5.44-.48-7.49-1.42-2.05-.95-3.72-2.24-5.01-3.86-1.29-1.62-2.21-3.48-2.76-5.56-.55-2.08-.83-4.26-.83-6.52v-27.84h11.03v22.33c0,1.23.06,2.59.18,4.09.12,1.5.44,2.91.96,4.22.52,1.32,1.32,2.42,2.39,3.31,1.07.89,2.59,1.33,4.55,1.33,1.84,0,3.39-.3,4.64-.92,1.26-.61,2.3-1.44,3.12-2.48.83-1.04,1.42-2.24,1.79-3.59.37-1.34.55-2.76.55-4.23v-24.08h11.03v44.11Z"/>
          <path class="cls-1" d="M669.89,238.43c0-1.71-.29-3.37-.87-4.96-.58-1.59-1.44-3-2.57-4.23-1.13-1.23-2.5-2.21-4.09-2.94-1.59-.73-3.4-1.1-5.42-1.1s-3.83.37-5.42,1.1c-1.59.74-2.96,1.72-4.09,2.94-1.13,1.23-1.99,2.63-2.57,4.23-.58,1.59-.87,3.25-.87,4.96s.29,3.37.87,4.96c.58,1.6,1.44,3,2.57,4.23,1.13,1.23,2.5,2.21,4.09,2.94,1.59.74,3.4,1.1,5.42,1.1s3.83-.37,5.42-1.1c1.59-.73,2.96-1.71,4.09-2.94,1.13-1.22,1.99-2.63,2.57-4.23.58-1.59.87-3.25.87-4.96M633.31,216.38h10.48v6.62h.18c1.59-2.69,3.74-4.65,6.43-5.88,2.7-1.23,5.61-1.84,8.73-1.84,3.37,0,6.4.6,9.1,1.79,2.69,1.2,4.99,2.84,6.89,4.92,1.9,2.08,3.34,4.53,4.32,7.35.98,2.82,1.47,5.85,1.47,9.1s-.52,6.28-1.56,9.1c-1.04,2.82-2.5,5.27-4.37,7.35-1.87,2.08-4.12,3.72-6.75,4.92-2.64,1.2-5.52,1.79-8.64,1.79-2.08,0-3.92-.21-5.52-.64-1.59-.43-3-.98-4.23-1.65-1.23-.67-2.27-1.39-3.13-2.16-.86-.77-1.56-1.52-2.11-2.25h-.28v26.56h-11.03v-65.06Z"/>
          <path class="cls-1" d="M722.64,234.02c-.06-3.25-1.07-5.8-3.03-7.67-1.96-1.87-4.69-2.8-8.18-2.8-3.31,0-5.93.95-7.86,2.85-1.93,1.9-3.11,4.44-3.54,7.63h22.61ZM700.03,242.29c.37,3.31,1.65,5.88,3.86,7.72,2.21,1.84,4.87,2.76,8,2.76,2.76,0,5.07-.57,6.94-1.7,1.87-1.13,3.51-2.56,4.92-4.27l7.9,5.97c-2.57,3.19-5.45,5.45-8.64,6.8-3.19,1.35-6.53,2.02-10.02,2.02-3.31,0-6.43-.55-9.37-1.65-2.94-1.1-5.48-2.66-7.63-4.69-2.14-2.02-3.84-4.46-5.1-7.31-1.26-2.85-1.88-6.02-1.88-9.51s.63-6.66,1.88-9.51c1.26-2.85,2.96-5.28,5.1-7.31,2.15-2.02,4.69-3.58,7.63-4.69,2.94-1.1,6.07-1.65,9.37-1.65,3.06,0,5.87.54,8.41,1.61,2.54,1.07,4.72,2.62,6.52,4.64,1.81,2.02,3.22,4.52,4.23,7.49,1.01,2.97,1.52,6.39,1.52,10.24v3.03h-33.64Z"/>
          <path class="cls-1" d="M743.96,216.38h11.03v6.98h.18c1.22-2.57,2.97-4.56,5.24-5.97,2.27-1.41,4.87-2.11,7.81-2.11.67,0,1.33.06,1.97.18.65.13,1.3.28,1.98.46v10.66c-.92-.24-1.82-.44-2.71-.6-.89-.15-1.76-.23-2.62-.23-2.57,0-4.64.47-6.2,1.42-1.56.95-2.76,2.04-3.58,3.26-.83,1.23-1.38,2.45-1.65,3.67-.28,1.23-.41,2.15-.41,2.76v23.61h-11.03v-44.11Z"/>
          <path class="cls-1" d="M779.89,216.38h11.03v44.11h-11.03v-44.11ZM778.33,201.4c0-1.78.66-3.32,1.97-4.64,1.32-1.32,2.99-1.98,5.01-1.98s3.72.63,5.1,1.88c1.38,1.26,2.07,2.83,2.07,4.73s-.69,3.48-2.07,4.73c-1.38,1.26-3.08,1.88-5.1,1.88s-3.69-.66-5.01-1.98c-1.32-1.32-1.97-2.86-1.97-4.64"/>
          <path class="cls-1" d="M812.42,238.43c0,1.72.29,3.37.88,4.96.58,1.6,1.44,3,2.57,4.23,1.14,1.23,2.5,2.21,4.09,2.94,1.59.73,3.4,1.1,5.42,1.1s3.83-.37,5.42-1.1c1.59-.73,2.95-1.71,4.09-2.94,1.13-1.22,1.99-2.63,2.57-4.23.58-1.59.87-3.25.87-4.96s-.29-3.37-.87-4.96c-.58-1.59-1.44-3-2.57-4.23-1.14-1.22-2.5-2.21-4.09-2.94-1.59-.73-3.4-1.1-5.42-1.1s-3.83.37-5.42,1.1c-1.59.73-2.95,1.72-4.09,2.94-1.13,1.23-1.99,2.63-2.57,4.23-.58,1.59-.88,3.25-.88,4.96M801.4,238.43c0-3.49.63-6.66,1.88-9.51,1.26-2.85,2.95-5.28,5.1-7.31,2.14-2.02,4.69-3.58,7.63-4.69,2.94-1.1,6.07-1.65,9.37-1.65s6.43.55,9.37,1.65c2.94,1.1,5.48,2.67,7.63,4.69,2.14,2.02,3.84,4.46,5.1,7.31,1.25,2.85,1.88,6.02,1.88,9.51s-.63,6.66-1.88,9.51c-1.26,2.85-2.96,5.28-5.1,7.31-2.15,2.02-4.69,3.58-7.63,4.69-2.94,1.1-6.07,1.65-9.37,1.65s-6.43-.55-9.37-1.65c-2.94-1.1-5.48-2.66-7.63-4.69-2.15-2.02-3.85-4.46-5.1-7.31-1.26-2.85-1.88-6.02-1.88-9.51"/>
          <path class="cls-1" d="M859.66,216.38h11.03v6.98h.18c1.22-2.57,2.97-4.56,5.24-5.97,2.27-1.41,4.87-2.11,7.81-2.11.67,0,1.33.06,1.97.18.65.13,1.3.28,1.98.46v10.66c-.92-.24-1.82-.44-2.71-.6-.89-.15-1.76-.23-2.62-.23-2.57,0-4.64.47-6.2,1.42-1.56.95-2.76,2.04-3.58,3.26-.83,1.23-1.38,2.45-1.65,3.67-.28,1.23-.41,2.15-.41,2.76v23.61h-11.03v-44.11Z"/>
        </g>
        <g>
          <path class="cls-2" d="M535.43,336.48c0,1.72.29,3.37.87,4.96.58,1.59,1.44,3,2.57,4.23,1.13,1.22,2.5,2.2,4.09,2.94,1.59.73,3.4,1.1,5.42,1.1s3.83-.37,5.42-1.1c1.59-.73,2.96-1.71,4.09-2.94,1.13-1.23,1.99-2.63,2.57-4.23.58-1.59.88-3.25.88-4.96s-.29-3.37-.88-4.96c-.58-1.59-1.44-3-2.57-4.23-1.14-1.22-2.5-2.21-4.09-2.94-1.59-.73-3.4-1.1-5.42-1.1s-3.83.37-5.42,1.1c-1.59.73-2.96,1.72-4.09,2.94-1.14,1.23-1.99,2.63-2.57,4.23-.58,1.59-.87,3.25-.87,4.96M561.53,351.91h-.18c-1.6,2.7-3.74,4.66-6.43,5.88-2.7,1.22-5.61,1.84-8.73,1.84-3.43,0-6.48-.6-9.15-1.79-2.66-1.19-4.95-2.83-6.85-4.91-1.9-2.08-3.34-4.53-4.32-7.35-.98-2.82-1.47-5.85-1.47-9.1s.52-6.28,1.56-9.1c1.04-2.82,2.5-5.27,4.37-7.35,1.87-2.08,4.12-3.72,6.76-4.92,2.63-1.19,5.51-1.79,8.64-1.79,2.08,0,3.92.22,5.51.64,1.59.43,3,.98,4.23,1.65,1.22.67,2.27,1.4,3.13,2.16.86.77,1.56,1.52,2.11,2.25h.28v-30.97h11.03v69.47h-10.48v-6.62Z"/>
          <path class="cls-2" d="M615.94,332.07c-.06-3.25-1.07-5.81-3.03-7.67-1.96-1.87-4.69-2.8-8.18-2.8-3.31,0-5.93.95-7.86,2.85-1.93,1.9-3.11,4.44-3.54,7.63h22.61ZM593.33,340.34c.37,3.31,1.65,5.88,3.86,7.72,2.21,1.84,4.87,2.76,8,2.76,2.76,0,5.07-.57,6.94-1.7,1.87-1.13,3.51-2.56,4.92-4.27l7.9,5.97c-2.57,3.19-5.45,5.45-8.64,6.8-3.19,1.35-6.52,2.02-10.02,2.02-3.31,0-6.43-.55-9.37-1.66-2.94-1.1-5.48-2.66-7.63-4.69-2.15-2.02-3.85-4.46-5.1-7.3-1.26-2.85-1.88-6.02-1.88-9.51s.63-6.66,1.88-9.51c1.26-2.85,2.96-5.28,5.1-7.31,2.14-2.02,4.69-3.58,7.63-4.69,2.94-1.1,6.07-1.65,9.37-1.65,3.06,0,5.87.54,8.41,1.61,2.54,1.07,4.72,2.62,6.52,4.64,1.81,2.02,3.22,4.52,4.23,7.49,1.01,2.97,1.52,6.39,1.52,10.25v3.03h-33.64Z"/>
          <path class="cls-2" d="M698.36,339.97c0,2.57-.41,5.05-1.24,7.44-.83,2.39-2.05,4.49-3.67,6.29-1.63,1.81-3.66,3.25-6.11,4.32-2.45,1.07-5.3,1.61-8.55,1.61-5.15,0-9.36-1.2-12.64-3.58-3.28-2.39-5.44-6.19-6.48-11.39l10.84-2.57c.37,2.14,1.24,3.86,2.62,5.15,1.38,1.29,3.08,1.93,5.1,1.93,3.31,0,5.56-1.12,6.75-3.35,1.2-2.23,1.79-5.31,1.79-9.24v-43.65h11.58v47.05Z"/>
          <path class="cls-2" d="M738.34,338.22h-2.3c-1.53,0-3.25.06-5.15.18-1.9.12-3.69.41-5.38.87-1.69.46-3.11,1.14-4.27,2.02-1.16.89-1.75,2.13-1.75,3.72,0,1.04.23,1.92.69,2.62.46.71,1.06,1.3,1.79,1.79.73.49,1.56.84,2.48,1.06.92.21,1.84.32,2.76.32,3.8,0,6.6-.9,8.41-2.71,1.81-1.81,2.71-4.27,2.71-7.4v-2.48ZM738.98,351.91h-.28c-1.59,2.51-3.61,4.33-6.07,5.47-2.45,1.13-5.15,1.7-8.09,1.7-2.02,0-4-.28-5.93-.83-1.93-.55-3.65-1.38-5.15-2.48-1.5-1.1-2.71-2.48-3.63-4.14-.92-1.65-1.38-3.58-1.38-5.79,0-2.39.43-4.43,1.29-6.11.86-1.69,2.01-3.09,3.45-4.23,1.44-1.13,3.11-2.04,5.01-2.71,1.9-.67,3.87-1.18,5.93-1.51,2.05-.34,4.12-.55,6.2-.64,2.08-.09,4.04-.14,5.88-.14h2.76v-1.19c0-2.76-.95-4.83-2.85-6.2-1.9-1.38-4.32-2.07-7.26-2.07-2.33,0-4.5.41-6.52,1.24-2.02.83-3.77,1.95-5.24,3.35l-5.79-5.79c2.45-2.51,5.32-4.32,8.59-5.42,3.28-1.1,6.66-1.65,10.15-1.65,3.13,0,5.76.35,7.9,1.06,2.14.71,3.92,1.61,5.33,2.71,1.41,1.1,2.5,2.38,3.26,3.81.77,1.44,1.32,2.89,1.65,4.36.34,1.47.54,2.89.6,4.27.06,1.38.09,2.59.09,3.63v25.36h-9.93v-6.07Z"/>
          <rect class="cls-2" x="760.94" y="288.51" width="11.03" height="69.47"/>
          <g>
            <path class="cls-2" d="M784.93,313.87h11.03v44.11h-11.03v-44.11ZM783.37,298.89c0-1.78.66-3.32,1.97-4.64,1.32-1.32,2.99-1.98,5.01-1.98s3.72.63,5.1,1.88c1.38,1.26,2.07,2.83,2.07,4.73s-.69,3.48-2.07,4.73c-1.38,1.26-3.08,1.88-5.1,1.88s-3.69-.66-5.01-1.98c-1.32-1.32-1.97-2.86-1.97-4.64"/>
            <path class="cls-2" d="M832.17,326.09c-2.14-3-5.02-4.5-8.64-4.5-1.47,0-2.91.37-4.32,1.1-1.41.74-2.11,1.93-2.11,3.58,0,1.35.58,2.33,1.74,2.94,1.16.61,2.63,1.13,4.41,1.56,1.78.43,3.69.87,5.74,1.33,2.05.46,3.97,1.16,5.74,2.11,1.78.95,3.25,2.25,4.41,3.91,1.16,1.65,1.75,3.92,1.75,6.8,0,2.63-.57,4.85-1.7,6.66-1.13,1.81-2.6,3.26-4.41,4.36-1.81,1.1-3.85,1.9-6.11,2.39-2.27.49-4.53.73-6.8.73-3.43,0-6.59-.49-9.47-1.47-2.88-.98-5.45-2.76-7.72-5.33l7.35-6.89c1.41,1.59,2.92,2.89,4.55,3.91,1.62,1.01,3.6,1.52,5.93,1.52.8,0,1.62-.09,2.48-.28.86-.18,1.66-.49,2.39-.92.74-.43,1.33-.96,1.79-1.61.46-.64.69-1.39.69-2.25,0-1.53-.58-2.66-1.75-3.4-1.17-.74-2.63-1.33-4.41-1.79-1.78-.46-3.69-.89-5.75-1.29-2.05-.4-3.97-1.04-5.74-1.93-1.78-.89-3.25-2.13-4.41-3.72-1.16-1.59-1.75-3.8-1.75-6.62,0-2.45.51-4.58,1.52-6.39,1.01-1.81,2.34-3.29,4-4.46,1.66-1.16,3.55-2.02,5.7-2.57,2.14-.55,4.32-.83,6.52-.83,2.94,0,5.85.51,8.73,1.52,2.88,1.01,5.21,2.74,6.98,5.19l-7.35,6.62Z"/>
            <path class="cls-2" d="M879.59,327.1c-1.29-1.35-2.64-2.42-4.04-3.21-1.41-.8-2.85-1.2-4.32-1.2-2.02,0-3.83.37-5.42,1.1-1.59.73-2.96,1.71-4.09,2.94-1.13,1.22-1.99,2.63-2.57,4.23-.58,1.59-.88,3.25-.88,4.96s.29,3.37.88,4.96c.58,1.59,1.44,3,2.57,4.23,1.13,1.23,2.5,2.21,4.09,2.94,1.59.73,3.4,1.1,5.42,1.1,1.71,0,3.31-.35,4.78-1.06,1.47-.7,2.73-1.73,3.77-3.08l7.35,7.9c-1.1,1.1-2.38,2.05-3.82,2.85-1.44.8-2.89,1.44-4.36,1.93-1.47.49-2.88.84-4.23,1.06-1.35.21-2.51.32-3.49.32-3.31,0-6.43-.55-9.37-1.65-2.94-1.1-5.48-2.66-7.63-4.69-2.15-2.02-3.84-4.46-5.1-7.31-1.26-2.85-1.88-6.02-1.88-9.51s.63-6.66,1.88-9.51c1.26-2.85,2.96-5.28,5.1-7.31,2.14-2.02,4.69-3.58,7.63-4.69,2.94-1.1,6.07-1.65,9.37-1.65,2.82,0,5.65.54,8.5,1.61,2.85,1.07,5.34,2.77,7.49,5.1l-7.63,7.63Z"/>
            <path class="cls-2" d="M902.56,335.93c0,1.72.29,3.37.87,4.96.58,1.59,1.44,3,2.57,4.23,1.13,1.23,2.5,2.21,4.09,2.94,1.59.73,3.4,1.1,5.42,1.1s3.83-.37,5.42-1.1c1.59-.73,2.95-1.71,4.09-2.94,1.13-1.22,1.99-2.63,2.57-4.23.58-1.59.87-3.25.87-4.96s-.29-3.37-.87-4.96c-.58-1.59-1.44-3-2.57-4.23-1.14-1.23-2.5-2.21-4.09-2.94-1.59-.73-3.4-1.1-5.42-1.1s-3.83.37-5.42,1.1c-1.59.73-2.96,1.71-4.09,2.94-1.13,1.23-1.99,2.64-2.57,4.23-.58,1.59-.87,3.25-.87,4.96M891.54,335.93c0-3.49.63-6.66,1.88-9.51,1.26-2.85,2.96-5.28,5.1-7.31,2.14-2.02,4.69-3.58,7.63-4.69,2.94-1.1,6.07-1.65,9.38-1.65s6.43.55,9.37,1.65c2.94,1.1,5.48,2.66,7.63,4.69,2.15,2.02,3.84,4.46,5.1,7.31,1.26,2.85,1.89,6.02,1.89,9.51s-.63,6.66-1.89,9.51c-1.26,2.85-2.96,5.28-5.1,7.31-2.14,2.02-4.69,3.58-7.63,4.69-2.94,1.1-6.07,1.65-9.37,1.65s-6.43-.55-9.38-1.65c-2.94-1.1-5.48-2.67-7.63-4.69-2.15-2.02-3.85-4.46-5.1-7.31-1.26-2.85-1.88-6.02-1.88-9.51"/>
          </g>
        </g>
      </g>
    </g>
  </g>
</svg>